<?xml version="1.0" encoding="UTF-8" standalone="no"?>
<!DOCTYPE svg PUBLIC "-//W3C//DTD SVG 1.1//EN" "http://www.w3.org/Graphics/SVG/1.1/DTD/svg11.dtd">
<svg width="100%" height="100%" viewBox="0 0 616 267" version="1.1" xmlns="http://www.w3.org/2000/svg" xmlns:xlink="http://www.w3.org/1999/xlink" xml:space="preserve" xmlns:serif="http://www.serif.com/" style="fill-rule:evenodd;clip-rule:evenodd;stroke-linejoin:round;stroke-miterlimit:2;">
    <g transform="matrix(1,0,0,1,-54,-54)">
        <g transform="matrix(1,0,0,1,290,121)">
            <path d="M174,17L160,17L160,116L144,116L144,129L129,129L129,144L65,144L65,168L81,168L81,185L96,185L96,200L1,200L1,184L16,184L16,168L32,168L32,32L17,32L17,17L0,17L0,0L144,0L144,17L159,17L159,1L223,1L223,113L238,113L238,85L253,84L254,73L270,73L270,60L238,60L238,29L253,29L253,16L269,16L269,0L334,0L334,16L349,16L350,112L365,113L365,129L380,129L380,144L333,144L333,129L318,129L318,144L159,144L159,128L174,128L174,112L190,112L190,32L175,32L174,17ZM65,32L65,112L111,112L111,100L127,100L127,45L111,45L111,32L65,32ZM286,17L286,32L270,32L270,57C285.7,57.089 301.34,57.292 317,56L317,32L301,32L301,17L286,17ZM270,88L270,112L317,112L317,88L270,88ZM239,116L239,128L253,128L253,116L239,116ZM-221,0L-124,0L-124,28L-110,28L-110,0L-29,0L-29,16L-14,16L-14,28L2,28L2,88L-14,88L-14,101L2,101L2,144L-14,144L-14,157L-29,157L-29,185L-45,185L-45,200L-125,200L-126,173L-141,172L-141,144L-236,144L-236,85L-221,85L-221,73L-236,73L-236,16L-221,16L-221,0ZM-188,17L-188,32L-204,32L-204,56L-140,56L-140,72L-125,72L-125,129L-140,129L-140,140L-93,140L-93,168L-63,168L-63,156L-47,156L-47,140L-31,140L-31,116L-46,116L-46,101L-79,101L-79,84L-47,84L-47,72L-31,72L-31,45L-47,45L-47,17L-77,17L-77,60L-125,60L-125,45L-157,45L-157,32L-173,32L-173,17L-188,17ZM-220,88L-220,101L-204,101L-204,112L-157,112L-157,88L-220,88ZM191,-67L223,-67L223,-24L191,-24L190.438,-39.312L190.252,-44.072L190.121,-47.926L189.978,-51.814C190.005,-56.887 190.541,-61.947 191,-67Z" style="fill:#c9a227;"/>
        </g>
    </g>
</svg>
